<svg xmlns="http://www.w3.org/2000/svg" width="709" height="410.098" viewBox="0 0 709 410.098">
  <g id="Path_1" data-name="Path 1" fill="#bb7a9c">
    <path d="M 180.3196716308594 354.38525390625 C 168.1182556152344 354.38525390625 155.9247131347656 353.1756591796875 144.0776672363281 350.7900695800781 C 132.5320281982422 348.4652099609375 121.1753997802734 344.9961547851562 110.3232650756836 340.4792785644531 C 99.66812896728516 336.0444641113281 89.39122009277344 330.5553894042969 79.77803802490234 324.1644287109375 C 70.25621795654297 317.8342590332031 61.30230712890625 310.5645141601562 53.16508102416992 302.5570983886719 C 45.02798843383789 294.5498352050781 37.64057922363281 285.7390747070312 31.20794486999512 276.3694763183594 C 24.71385383605957 266.9102783203125 19.1361255645752 256.7981262207031 14.62976264953613 246.3138427734375 C 10.04017162322998 235.6359710693359 6.515262603759766 224.4617919921875 4.152989864349365 213.1016998291016 C 1.729035258293152 201.4452056884766 0.4999898076057434 189.44775390625 0.4999898076057434 177.4426116943359 C 0.4999898076057434 165.4374694824219 1.729035258293152 153.4400634765625 4.152989864349365 141.7835235595703 C 6.515262603759766 130.4234771728516 10.04017162322998 119.2492904663086 14.62976264953613 108.5713806152344 C 19.1361255645752 98.08711242675781 24.71385383605957 87.97492980957031 31.20794486999512 78.51579284667969 C 37.64057922363281 69.14620208740234 45.02798843383789 60.33538436889648 53.16508102416992 52.32815551757812 C 61.30230712890625 44.32074737548828 70.25621795654297 37.05097579956055 79.77803802490234 30.72079277038574 C 89.39122009277344 24.32988357543945 99.66812896728516 18.84079360961914 110.3232650756836 14.40597534179688 C 121.1753997802734 9.889111518859863 132.5320281982422 6.420066356658936 144.0776672363281 4.095202445983887 C 155.9247131347656 1.709611654281616 168.1182556152344 0.5000208020210266 180.3196716308594 0.5000208020210266 C 192.5210876464844 0.5000208020210266 204.7146301269531 1.709611654281616 216.5616760253906 4.095202445983887 C 228.1073150634766 6.420066356658936 239.4639434814453 9.889111518859863 250.3160858154297 14.40597534179688 C 260.9712219238281 18.84079360961914 271.2481384277344 24.32988357543945 280.8612976074219 30.72079277038574 C 290.3831176757812 37.05097579956055 299.3370361328125 44.32074737548828 307.4742736816406 52.32815551757812 C 315.6113586425781 60.33538436889648 322.9987487792969 69.14620208740234 329.431396484375 78.51579284667969 C 335.9254760742188 87.97492980957031 341.5032043457031 98.08711242675781 346.0095825195312 108.5713806152344 C 350.5991821289062 119.2492904663086 354.1240844726562 130.4234771728516 356.4863586425781 141.7835235595703 C 358.9103088378906 153.4400634765625 360.1393432617188 165.4374694824219 360.1393432617188 177.4426116943359 C 360.1393432617188 189.44775390625 358.9103088378906 201.4452056884766 356.4863586425781 213.1016998291016 C 354.1240844726562 224.4617919921875 350.5991821289062 235.6359710693359 346.0095825195312 246.3138427734375 C 341.5032043457031 256.7981262207031 335.9254760742188 266.9102783203125 329.431396484375 276.3694763183594 C 322.9987487792969 285.7390747070312 315.6113586425781 294.5498352050781 307.4742736816406 302.5570983886719 C 299.3370361328125 310.5645141601562 290.3831176757812 317.8342590332031 280.8612976074219 324.1644287109375 C 271.2481384277344 330.5553894042969 260.9712219238281 336.0444641113281 250.3160858154297 340.4792785644531 C 239.4639434814453 344.9961547851562 228.1073150634766 348.4652099609375 216.5616760253906 350.7900695800781 C 204.7146301269531 353.1756591796875 192.5210876464844 354.38525390625 180.3196716308594 354.38525390625 Z" stroke="none"/>
    <path d="M 180.3196716308594 0.999969482421875 C 168.1513519287109 0.999969482421875 155.9909973144531 2.20623779296875 144.1763458251953 4.585296630859375 C 132.6626739501953 6.90374755859375 121.3374938964844 10.36318969726562 110.5153503417969 14.86752319335938 C 99.8897705078125 19.29006958007812 89.64138793945312 24.76397705078125 80.05484008789062 31.13714599609375 C 70.5594482421875 37.44979858398438 61.63040161132812 44.6993408203125 53.51580810546875 52.68450927734375 C 45.40145874023438 60.66937255859375 38.03472900390625 69.45547485351562 31.62017822265625 78.79873657226562 C 25.14450073242188 88.2310791015625 19.58267211914062 98.31448364257812 15.089111328125 108.7688446044922 C 10.51275634765625 119.4159698486328 6.99798583984375 130.5579681396484 4.642486572265625 141.8853454589844 C 2.225494384765625 153.5084228515625 1 165.4716186523438 1 177.4426116943359 C 1 189.4136047363281 2.225494384765625 201.3768005371094 4.642486572265625 212.9998779296875 C 6.99798583984375 224.3272552490234 10.51275634765625 235.46923828125 15.089111328125 246.1163940429688 C 19.58267211914062 256.5707397460938 25.14450073242188 266.6541748046875 31.62017822265625 276.0864868164062 C 38.03472900390625 285.4297485351562 45.40145874023438 294.2158508300781 53.51580810546875 302.2007141113281 C 61.63040161132812 310.1858520507812 70.5594482421875 317.4354248046875 80.05484008789062 323.7480163574219 C 89.64138793945312 330.1212463378906 99.8897705078125 335.5951232910156 110.5153503417969 340.0176696777344 C 121.3374938964844 344.52197265625 132.6626739501953 347.9814453125 144.1763458251953 350.2998962402344 C 155.9909973144531 352.6789245605469 168.1513519287109 353.8851928710938 180.3196716308594 353.8851928710938 C 192.4879913330078 353.8851928710938 204.6483459472656 352.6789245605469 216.4629974365234 350.2998962402344 C 227.9766693115234 347.9814453125 239.3018493652344 344.52197265625 250.1239929199219 340.0176696777344 C 260.7495727539062 335.5951232910156 270.9979553222656 330.1212463378906 280.58447265625 323.7480163574219 C 290.0798950195312 317.4354248046875 299.0089416503906 310.1858520507812 307.12353515625 302.2007141113281 C 315.2379150390625 294.2158508300781 322.6046142578125 285.4297485351562 329.0191650390625 276.0864868164062 C 335.4948425292969 266.6541748046875 341.0566711425781 256.5707397460938 345.5502319335938 246.1163940429688 C 350.1265869140625 235.46923828125 353.641357421875 224.3272552490234 355.9968566894531 212.9998779296875 C 358.4138488769531 201.3768005371094 359.6393432617188 189.4136047363281 359.6393432617188 177.4426116943359 C 359.6393432617188 165.4716186523438 358.4138488769531 153.5084228515625 355.9968566894531 141.8853454589844 C 353.641357421875 130.5579681396484 350.1265869140625 119.4159698486328 345.5502319335938 108.7688446044922 C 341.0566711425781 98.31448364257812 335.4948425292969 88.2310791015625 329.0191650390625 78.79873657226562 C 322.6046142578125 69.45547485351562 315.2379150390625 60.66937255859375 307.12353515625 52.68450927734375 C 299.0089416503906 44.6993408203125 290.0798950195312 37.44979858398438 280.58447265625 31.13714599609375 C 270.9979553222656 24.76397705078125 260.7495727539062 19.29006958007812 250.1239929199219 14.86752319335938 C 239.3018493652344 10.36318969726562 227.9766693115234 6.90374755859375 216.4629974365234 4.585296630859375 C 204.6483459472656 2.20623779296875 192.4879913330078 0.999969482421875 180.3196716308594 0.999969482421875 M 180.3196716308594 -3.0517578125e-05 C 279.9075012207031 -3.0517578125e-05 360.6393432617188 79.44378662109375 360.6393432617188 177.4426116943359 C 360.6393432617188 275.4414672851562 279.9075012207031 354.8851928710938 180.3196716308594 354.8851928710938 C 80.73184204101562 354.8851928710938 0 275.4414672851562 0 177.4426116943359 C 0 79.44378662109375 80.73184204101562 -3.0517578125e-05 180.3196716308594 -3.0517578125e-05 Z" stroke="none" fill="#707070"/>
  </g>
  <text id="PORTFOLIO_" data-name="PORTFOLIO
" transform="translate(153 247.098)" fill="#060606" font-size="100" font-family="Sylfaen"><tspan x="0" y="0">PORTFOLIO</tspan><tspan x="0" y="132"></tspan></text>
</svg>
